<svg width="134" height="26" viewBox="0 0 134 26" fill="none" xmlns="http://www.w3.org/2000/svg">
    <path d="M38.4688 11.71C39.4088 11.71 40.0955 11.4833 40.5288 11.03C40.9688 10.5767 41.1888 9.95667 41.1888 9.17C41.1888 8.81 41.1322 8.48333 41.0188 8.19C40.9122 7.89 40.7455 7.63667 40.5188 7.43C40.2988 7.21667 40.0188 7.05333 39.6788 6.94C39.3388 6.82667 38.9355 6.77 38.4688 6.77H36.5688V11.71H38.4688ZM38.4688 4.49C39.4622 4.49 40.3188 4.60667 41.0388 4.84C41.7655 5.07333 42.3622 5.4 42.8288 5.82C43.2955 6.23333 43.6388 6.72667 43.8588 7.3C44.0855 7.87333 44.1988 8.49667 44.1988 9.17C44.1988 9.88333 44.0822 10.5367 43.8488 11.13C43.6155 11.7233 43.2622 12.2333 42.7888 12.66C42.3155 13.0867 41.7188 13.42 40.9988 13.66C40.2788 13.8933 39.4355 14.01 38.4688 14.01H36.5688V19H33.5688V4.49H38.4688ZM53.7613 13.49L52.1913 9.05C52.098 8.81667 51.998 8.54333 51.8913 8.23C51.7913 7.91 51.6913 7.56667 51.5913 7.2C51.498 7.57333 51.398 7.92 51.2913 8.24C51.1913 8.56 51.0947 8.83667 51.0013 9.07L49.4413 13.49H53.7613ZM58.7913 19H56.4713C56.2113 19 55.998 18.94 55.8313 18.82C55.6713 18.6933 55.5513 18.5333 55.4713 18.34L54.4913 15.57H48.7013L47.7213 18.34C47.6613 18.5067 47.5447 18.66 47.3713 18.8C47.2047 18.9333 46.9947 19 46.7413 19H44.4013L50.0613 4.49H53.1313L58.7913 19ZM73.5262 4.49V19H70.5062V12.75H64.1162V19H61.0962V4.49H64.1162V10.65H70.5062V4.49H73.5262ZM86.7049 16.73V6.76H83.0949C83.0149 8.10667 82.9083 9.30667 82.7749 10.36C82.6416 11.4133 82.4883 12.3433 82.3149 13.15C82.1416 13.9567 81.9483 14.6533 81.7349 15.24C81.5216 15.8267 81.2916 16.3233 81.0449 16.73H86.7049ZM91.9349 16.73V21.58C91.9349 21.8333 91.8449 22.0367 91.6649 22.19C91.4916 22.3433 91.2649 22.42 90.9849 22.42H89.1849V19H78.9449V21.58C78.9449 21.8333 78.8549 22.0367 78.6749 22.19C78.5016 22.3433 78.2749 22.42 77.9949 22.42H76.1849V16.73H77.7949C77.9683 16.63 78.1449 16.4733 78.3249 16.26C78.5049 16.04 78.6783 15.7333 78.8449 15.34C79.0183 14.94 79.1783 14.44 79.3249 13.84C79.4783 13.2333 79.6149 12.4967 79.7349 11.63C79.8616 10.7567 79.9683 9.73333 80.0549 8.56C80.1483 7.38667 80.2149 6.03 80.2549 4.49H89.7249V16.73H91.9349ZM97.9326 6.84V10.57H102.773V12.84H97.9326V16.65H104.153V19H94.9126V4.49H104.153V6.84H97.9326ZM112.967 16.7C113.447 16.7 113.84 16.6433 114.147 16.53C114.46 16.41 114.71 16.2533 114.897 16.06C115.084 15.8667 115.214 15.6467 115.287 15.4C115.36 15.1467 115.397 14.8867 115.397 14.62C115.397 14.3267 115.354 14.0633 115.267 13.83C115.18 13.5967 115.04 13.4 114.847 13.24C114.654 13.0733 114.4 12.9467 114.087 12.86C113.78 12.7733 113.4 12.73 112.947 12.73H110.397V16.7H112.967ZM110.397 6.77V10.69H112.367C112.787 10.69 113.16 10.6567 113.487 10.59C113.814 10.5167 114.087 10.4033 114.307 10.25C114.527 10.0967 114.694 9.89667 114.807 9.65C114.927 9.39667 114.987 9.09333 114.987 8.74C114.987 8.38 114.937 8.07333 114.837 7.82C114.744 7.56667 114.597 7.36333 114.397 7.21C114.197 7.05667 113.944 6.94667 113.637 6.88C113.33 6.80667 112.967 6.77 112.547 6.77H110.397ZM112.547 4.49C113.52 4.49 114.35 4.58333 115.037 4.77C115.73 4.95 116.294 5.21 116.727 5.55C117.167 5.88333 117.487 6.29 117.687 6.77C117.887 7.25 117.987 7.78667 117.987 8.38C117.987 8.71333 117.937 9.03333 117.837 9.34C117.744 9.64667 117.594 9.93667 117.387 10.21C117.187 10.4767 116.927 10.72 116.607 10.94C116.287 11.16 115.907 11.3467 115.467 11.5C116.454 11.7333 117.184 12.1133 117.657 12.64C118.13 13.1667 118.367 13.85 118.367 14.69C118.367 15.3033 118.247 15.8733 118.007 16.4C117.774 16.9267 117.43 17.3833 116.977 17.77C116.524 18.1567 115.964 18.46 115.297 18.68C114.637 18.8933 113.877 19 113.017 19H107.397V4.49H112.547ZM133.224 4.49L127.374 16.94C127.161 17.3867 126.931 17.7533 126.684 18.04C126.438 18.3267 126.171 18.5533 125.884 18.72C125.604 18.88 125.304 18.99 124.984 19.05C124.664 19.1167 124.321 19.15 123.954 19.15C123.428 19.15 123.048 19.1033 122.814 19.01C122.581 18.9167 122.464 18.78 122.464 18.6V16.75H123.274C123.408 16.75 123.548 16.74 123.694 16.72C123.848 16.6933 123.998 16.6433 124.144 16.57C124.298 16.49 124.444 16.38 124.584 16.24C124.724 16.1 124.854 15.91 124.974 15.67L125.494 14.64L119.674 4.49H122.494C122.754 4.49 122.961 4.55333 123.114 4.68C123.268 4.8 123.394 4.95667 123.494 5.15L126.014 10.01C126.181 10.3167 126.328 10.6233 126.454 10.93C126.588 11.2367 126.704 11.5467 126.804 11.86C126.984 11.2333 127.224 10.6167 127.524 10.01L129.744 5.15C129.824 4.99 129.944 4.84 130.104 4.7C130.271 4.56 130.481 4.49 130.734 4.49H133.224Z" fill="url(#paint0_linear_63_64)"/>
    <g filter="url(#filter0_d_63_64)">
        <path d="M13 21.4592L11.55 20.1122C6.4 15.3469 3 12.2041 3 8.34692C3 5.20407 5.42 2.73468 8.5 2.73468C10.24 2.73468 11.91 3.56121 13 4.86733C14.09 3.56121 15.76 2.73468 17.5 2.73468C20.58 2.73468 23 5.20407 23 8.34692C23 12.2041 19.6 15.3469 14.45 20.1224L13 21.4592Z" fill="url(#paint1_linear_63_64)"/>
    </g>
    <defs>
        <filter id="filter0_d_63_64" x="0" y="0.73468" width="26" height="24.7245" filterUnits="userSpaceOnUse" color-interpolation-filters="sRGB">
            <feFlood flood-opacity="0" result="BackgroundImageFix"/>
            <feColorMatrix in="SourceAlpha" type="matrix" values="0 0 0 0 0 0 0 0 0 0 0 0 0 0 0 0 0 0 127 0" result="hardAlpha"/>
            <feOffset dy="1"/>
            <feGaussianBlur stdDeviation="1.5"/>
            <feComposite in2="hardAlpha" operator="out"/>
            <feColorMatrix type="matrix" values="0 0 0 0 0.709804 0 0 0 0 0.00392157 0 0 0 0 0.173334 0 0 0 0.44 0"/>
            <feBlend mode="normal" in2="BackgroundImageFix" result="effect1_dropShadow_63_64"/>
            <feBlend mode="normal" in="SourceGraphic" in2="effect1_dropShadow_63_64" result="shape"/>
        </filter>
        <linearGradient id="paint0_linear_63_64" x1="82.5" y1="0.999998" x2="129.544" y2="57.8594" gradientUnits="userSpaceOnUse">
            <stop stop-color="#D11C45"/>
            <stop offset="0.661458" stop-color="#78001B"/>
            <stop offset="1"/>
        </linearGradient>
        <linearGradient id="paint1_linear_63_64" x1="6.5" y1="-5.42858" x2="19.9852" y2="36.2512" gradientUnits="userSpaceOnUse">
            <stop stop-color="#B5012C"/>
            <stop offset="1" stop-color="#FE3E47"/>
        </linearGradient>
    </defs>
</svg>
