<svg xmlns="http://www.w3.org/2000/svg" display="none">

    <symbol id="location" viewBox="0 0 15 24">
        <path d="M7.51699 0H7.48289C3.35675 0 0 3.37076 0 7.51393C0 10.2298 1.23129 13.814 3.65964 18.1673C5.46001 21.3947 7.28562 23.8665 7.30391 23.891C7.35473 23.9596 7.43482 24 7.51969 24C7.5221 24 7.52457 24 7.52698 23.9999C7.61454 23.9975 7.69536 23.9524 7.74393 23.8791C7.76194 23.8518 9.57454 21.1022 11.3627 17.7391C13.7762 13.2 15 9.75964 15 7.51393C14.9998 3.37071 11.643 0 7.51699 0ZM10.971 7.69755C10.971 9.62019 9.4139 11.1843 7.49989 11.1843C5.58593 11.1843 4.02882 9.62014 4.02882 7.69755C4.02882 5.77497 5.58593 4.21083 7.49989 4.21083C9.4139 4.21083 10.971 5.77497 10.971 7.69755Z"/>
    </symbol>

    <symbol id="phone" viewBox="0 0 18 19">
        <path d="M17.528 13.9441L15.0108 11.2926C14.1117 10.3456 12.5834 10.7244 12.2238 11.9554C11.9541 12.8077 11.0551 13.2812 10.246 13.0918C8.44795 12.6183 6.02061 10.1562 5.57111 8.16758C5.3014 7.31527 5.84081 6.36831 6.64992 6.08425C7.81864 5.70547 8.17825 4.09563 7.27923 3.14866L4.76199 0.497157C4.04278 -0.165719 2.96397 -0.165719 2.33466 0.497157L0.626529 2.29639C-1.0816 4.19032 0.806332 9.20924 5.0317 13.66C9.25706 18.1107 14.0218 20.1941 15.8199 18.3001L17.528 16.5009C18.1573 15.7433 18.1573 14.6069 17.528 13.9441Z"/>
    </symbol>

    <symbol id="arrow-left" viewBox="0 0 8 13">
        <path d="M7.41 11.0528L2.83 6.34198L7.41 1.63119L6 0.184082L0 6.34198L6 12.4999L7.41 11.0528Z"/>
    </symbol>

    <symbol id="arrow-right" viewBox="0 0 8 13">
        <path d="M0.589844 11.0264L5.16984 6.31561L0.589844 1.60482L1.99984 0.157715L7.99984 6.31561L1.99984 12.4735L0.589844 11.0264Z"/>
    </symbol>

    <symbol id="arrow-bottom" viewBox="0 0 16 10">
        <path d="M1.86667 -6.17788e-07L8 6.21622L14.1333 -8.15946e-08L16 1.89189L8 10L-8.26972e-08 1.89189L1.86667 -6.17788e-07Z"/>
    </symbol>

    <symbol id="search" viewBox="0 0 24 24">
        <path d="M15.5 14H14.71L14.43 13.73C15.41 12.59 16 11.11 16 9.5C16 5.91 13.09 3 9.5 3C5.91 3 3 5.91 3 9.5C3 13.09 5.91 16 9.5 16C11.11 16 12.59 15.41 13.73 14.43L14 14.71V15.5L19 20.49L20.49 19L15.5 14ZM9.5 14C7.01 14 5 11.99 5 9.5C5 7.01 7.01 5 9.5 5C11.99 5 14 7.01 14 9.5C14 11.99 11.99 14 9.5 14Z"/>
    </symbol>

</svg>