<svg width="19" height="19" viewBox="0 0 19 19" fill="none" xmlns="http://www.w3.org/2000/svg">
    <path d="M7.90634 2.10176C8.70665 1.0463 10.2934 1.0463 11.0937 2.10176L11.3379 2.42387C11.7746 2.99977 12.488 3.29527 13.204 3.19683L13.6045 3.14176C14.9167 2.96134 16.0387 4.08332 15.8582 5.39555L15.8032 5.79601C15.7047 6.51201 16.0002 7.22542 16.5761 7.6621L16.8982 7.90634C17.9537 8.70665 17.9537 10.2934 16.8982 11.0937L16.5761 11.3379C16.0002 11.7746 15.7047 12.488 15.8032 13.204L15.8582 13.6045C16.0387 14.9167 14.9167 16.0387 13.6045 15.8582L13.204 15.8032C12.488 15.7047 11.7746 16.0002 11.3379 16.5761L11.0937 16.8982C10.2934 17.9537 8.70664 17.9537 7.90633 16.8982L7.6621 16.5761C7.22542 16.0002 6.51201 15.7047 5.79601 15.8032L5.39555 15.8582C4.08331 16.0387 2.96134 14.9167 3.14177 13.6045L3.19683 13.204C3.29527 12.488 2.99977 11.7746 2.42387 11.3379L2.10176 11.0937C1.0463 10.2934 1.0463 8.70664 2.10176 7.90633L2.42387 7.6621C2.99977 7.22542 3.29527 6.51201 3.19683 5.79601L3.14177 5.39555C2.96134 4.08332 4.08332 2.96134 5.39555 3.14177L5.79601 3.19683C6.51201 3.29527 7.22542 2.99977 7.6621 2.42387L7.90634 2.10176Z" fill="#1578ED"/>
    <path d="M8.12526 11.4252L6.20026 9.50023L5.55859 10.1419L8.12526 12.7086L13.6253 7.20856L12.9836 6.56689L8.12526 11.4252Z" fill="white"/>
</svg>
